# xmcd CD database file
#
# Track frame offsets:
#	150
#	6965
#	20273
#	33460
#	45603
#	59082
#	83742
#	100424
#	119288
#	133004
#	151392
#	166775
#
# Disc length: 2268 seconds
#
# Revision: 1
# Processed by: cddbd v1.5.1PL0 Copyright (c) Steve Scherf et al.
# Submitted via: jetAudio 5
#
DISCID=9508da0c
DTITLE=The Blues Brothers - Briefcase Full Of Blues
DYEAR=1900
DGENRE=
TTITLE0=Opening: I Can't Turn You loouse
TTITLE1=Hey Bartender
TTITLE2=Messin' With the Kid
TTITLE3=(I Got Everything I Need) Almost
TTITLE4=Rubber Biscuit
TTITLE5=Shotgun Blues
TTITLE6=Groove Me
TTITLE7=I Don't Know
TTITLE8=Soul Man
TTITLE9=B Movie Boxcar Blues
TTITLE10=Flip Flop and Fly
TTITLE11=Closing: I Can't Turn You Loose
EXTD=
EXTT0=
EXTT1=
EXTT2=
EXTT3=
EXTT4=
EXTT5=
EXTT6=
EXTT7=
EXTT8=
EXTT9=
EXTT10=
EXTT11=
PLAYORDER=
